<?xml version="1.0" encoding="utf-8"?>
<!-- Generator: Adobe Illustrator 25.1.0, SVG Export Plug-In . SVG Version: 6.00 Build 0)  -->
<svg version="1.1" xmlns="http://www.w3.org/2000/svg" xmlns:xlink="http://www.w3.org/1999/xlink" x="0px" y="0px"
	 viewBox="0 0 95 87.2" style="enable-background:new 0 0 95 87.2;" xml:space="preserve">
<g id="Laag_2">
</g>
<g id="Laag_1">
	<g>
		<path d="M5270.6,2393.7v-2c0-2.8-5-4-9.7-4s-9.7,1.3-9.7,4v2c0,1.8,0.7,3.6,2,4.9l5,4.9c0.3,0.3,0.4,0.6,0.4,1v6.4
			c0,0.4,0.2,0.7,0.6,0.8l2.9,0.9c0.5,0.1,1-0.2,1-0.8v-7.2c0-0.4,0.2-0.7,0.4-1l5.1-5C5269.9,2397.3,5270.6,2395.5,5270.6,2393.7z
			 M5260.9,2393.6c-4.8,0-7.4-1.3-7.5-1.8l0,0c0.1-0.5,2.7-1.8,7.5-1.8s7.3,1.3,7.5,1.8C5268.2,2392.3,5265.7,2393.6,5260.9,2393.6z
			"/>
		<path d="M5265.9,2403.9c-0.6,0-1,0.4-1,1s0.4,1,1,1h4.3c0.6,0,1-0.4,1-1s-0.4-1-1-1H5265.9z"/>
		<path d="M5270.2,2407.3h-4.3c-0.6,0-1,0.4-1,1s0.4,1,1,1h4.3c0.6,0,1-0.4,1-1C5271.2,2407.7,5270.8,2407.3,5270.2,2407.3z"/>
		<path d="M5270.2,2410.6h-4.3c-0.6,0-1,0.4-1,1s0.4,1,1,1h4.3c0.6,0,1-0.4,1-1C5271.2,2411.1,5270.8,2410.6,5270.2,2410.6z"/>
	</g>
	<g>
		<path d="M95,41H73.7v-4.3c0-9,7.3-16.4,16.4-16.4V0C69.9,0,53.4,16.5,53.4,36.7v50.5H95V41z"/>
		<path d="M41.6,87.2V41H20.3v-4.3c0-9,7.3-16.4,16.4-16.4V0C16.5,0,0,16.5,0,36.7v50.5H41.6z"/>
	</g>
</g>
</svg>
