<?xml version="1.0" encoding="utf-8"?>
<!-- Generator: Adobe Illustrator 25.1.0, SVG Export Plug-In . SVG Version: 6.00 Build 0)  -->
<svg version="1.1" id="Laag_1" xmlns="http://www.w3.org/2000/svg" xmlns:xlink="http://www.w3.org/1999/xlink" x="0px" y="0px"
	 viewBox="0 0 37 37" style="enable-background:new 0 0 37 37;" xml:space="preserve">
<desc>Created with Sketch.</desc>
<g>
	<g>
		<path d="M26.2,23c-0.2,0.3-0.2,0.8,0.1,1.1l10.3,10.3c0.6,0.6,0.6,1.5,0,2.1s-1.5,0.6-2.1,0L24.2,26.3C23.9,26,23.4,26,23,26.2
			c0,0-0.1,0.1-0.5,0.4c-2.3,1.5-5.1,2.4-8,2.4C6.5,29,0,22.5,0,14.5S6.5,0,14.5,0S29,6.5,29,14.5c0,3-0.9,5.8-2.4,8.1
			C26.3,22.9,26.2,23,26.2,23z M14.5,26C20.9,26,26,20.9,26,14.5S20.9,3,14.5,3S3,8.1,3,14.5S8.1,26,14.5,26z"/>
	</g>
</g>
</svg>
